<?xml version="1.0" standalone="no"?><!DOCTYPE svg PUBLIC "-//W3C//DTD SVG 1.1//EN" "http://www.w3.org/Graphics/SVG/1.1/DTD/svg11.dtd"><svg t="1677229204566" class="icon" viewBox="0 0 1027 1024" version="1.1" xmlns="http://www.w3.org/2000/svg" p-id="3469" xmlns:xlink="http://www.w3.org/1999/xlink" width="200.5859375" height="200"><path d="M1026.89212 522.516l-0.205-5.463-0.375-3.367c-8.4-61.553-53.301-81.273-77.979-83.144-74.986-11.263-145.855 29.112-197.979 72.179-30.459-29.41-49.691-54.967-50.16-55.603l-35.209 26.005c2.076 2.77 21.533 28.737 52.646 59.083-30.758 30.121-49.99 55.79-52.031 58.521l35.211 26.006c0.469-0.674 19.383-25.932 49.504-55.154 46.025 37.941 106.568 73.602 171.656 73.602 8.514 0 17.063-0.562 25.67-1.871 27.818-1.833 78.445-25.108 79.549-101.889 0.04-2.769-0.187-5.912-0.298-8.905m-82.432 67.166l-2.451 0.224c-57.119 8.905-114.107-22.338-158.391-57.811 44.322-35.659 101.496-67.091 158.971-58.185 0.58 0.111 1.498 0.186 2.113 0.224 5.67 0.448 33.023 4.714 38.354 45.95 0.227 3.704 0.414 7.371 0.375 10.738-0.768 53.283-32.871 58.409-38.971 58.86" fill="#8a8a8a" p-id="3470"></path><path d="M942.16012 529.775c0 12.086-9.785 21.889-21.891 21.889-12.066 0-21.869-9.803-21.869-21.889 0-12.049 9.803-21.89 21.869-21.89 12.105 0 21.891 9.842 21.891 21.89M557.27712 364.313c13.826 0 25.014-11.189 25.014-24.996 0-13.807-11.188-24.995-25.014-24.995-13.789 0-25.014 11.188-25.014 24.995s11.225 24.996 25.014 24.996" fill="#8a8a8a" p-id="3471"></path><path d="M480.88812 523.863c0.411-1.086 1.291-2.358 2.058-3.594 15.061-14.03 26.324-24.32 26.604-24.546 0.075-0.075 0.112-0.149 0.187-0.261 45.296-31.956 136.894-75.248 236.989-109.561l28.268-9.691-17.811-24.022c-48.662-65.706-122.693-110.421-205.688-126.585l0.432-0.112c-1.311-4.266-33.49-105.444-229.823-103.125-9.822 0.112-18.129 6.848-20.692 16.314-2.526 9.467 1.759 19.57 10.196 24.584 1.291 0.823 30.309 18.784 41.142 80.225-69.841 27.502-128.4 76.52-164.06 138.971L35.53812 309.757c-8.7-4.116-19.083-2.059-25.556 5.014a21.95 21.95 0 0 0-2.657 25.931c29.972 50.477 77.53 142.077 77.53 172.909 0 28.662-47.409 111.543-81.084 161.234-5.557 8.194-4.902 19.083 1.534 26.566 4.247 4.938 10.383 7.559 16.594 7.559 3.181 0 6.399-0.674 9.411-2.133l144.771-69.372c31.769 71.019 91.656 127.707 166.137 159.625-13.19 11.937-34.761 26.866-60.58 27.651-8.999 0.262-16.932 6.062-19.962 14.556-3.031 8.494-0.505 17.961 6.324 23.873 0.767 0.636 45.949 38.503 110.533 38.503 44.714 0 98.82-18.261 153.957-79.514 83.199-11.412 158.373-51.15 211.318-113.076l18.016-21.067-24.676-12.609c-109.358-55.904-234.278-127.596-256.26-151.544m47.857 254.442l-0.205 0.337c-23.948 1.571-32.18 14.706-32.18 14.706-6.773 10.515-25.294 26.791-30.889 31.655-0.149 0.113-0.374 0.299-0.523 0.412-0.468 0.374-0.973 0.711-1.459 1.047-48.924 36.297-93.077 35.099-123.648 25.819 22.638-12.423 38.691-28.737 46.324-37.419l1.759-2.058c-0.038-0.037-0.112-0.037-0.149-0.037 1.141-1.534 2.151-2.919 2.993-4.191 4.865-7.371 5.557-11.375 5.557-11.375 5.669-24.808-31.768-38.204-31.768-38.204h0.149c-83.835-34.05-147.24-103.273-164.864-189.073-2.451-11.824-14.032-19.457-25.875-17.063-11.843 2.47-19.42 14.032-17.006 25.895 1.178 5.836 2.601 11.636 4.172 17.398l-80.767 38.69c23.648-41.048 48.232-91.001 48.232-121.234 0-31.917-26.511-89.804-50.103-135.042l91.375 43.367c-1.796 4.64-3.518 9.317-5.052 14.069-3.723 11.487 2.601 23.835 14.088 27.577 11.506 3.742 23.798-2.582 27.559-14.069 24.565-75.997 86.36-136.127 164.06-166.024 2.077-1.347 5.145-2.919 9.617-4.79 10.083-4.191 14.069-14.256 15.304-24.846 0.992-8.568 0.187-17.399-0.805-23.686a136.316 136.316 0 0 0-0.729-4.228c-5.258-24.322-13.041-43.218-21.347-57.811 69.316 6.96 104.415 29.673 121.776 47.446l0.188 0.188c1.104 1.122 2.17 2.357 3.218 3.592 7.203 8.531 11.6 18.709 11.6 18.709 8.009 21.927 20.038 27.577 25.763 28.999 1.609 0.449 2.564 0.523 2.898 0.523 0.076 0.038 0.15 0.038 0.244 0.038 63.986 11.338 122.02 41.983 164.453 87.371-64.771 23.499-159.756 62.152-217.063 104.809-2.001 0.935-3.947 2.02-5.631 3.591-0.467 0.449-2.769 2.545-6.211 5.725-5.332 4.454-10.234 8.943-14.556 13.433-21.496 19.944-54.537 50.926-73.919 70.833-8.438 8.644-8.232 22.487 0.412 30.907a21.833 21.833 0 0 0 15.266 6.211c5.707 0 11.375-2.17 15.66-6.586 8.549-8.792 20.112-20.057 32.198-31.543C470.72912 575.5 530.14812 617.52 691.27112 701c-43.592 41.608-100.467 68.325-162.526 77.305" fill="#8a8a8a" p-id="3472"></path></svg>